# Blender v2.83.2 OBJ File: 'Birthday Splash Bash Jan 14.blend'
# www.blender.org
mtllib Bottle.mtl
o Water_Bottle_Sphere.002
v -0.267803 0.450622 -0.000004
v -0.136900 0.563815 -0.071865
v -0.237127 0.450622 -0.124466
v -0.273811 0.295999 -0.143719
v -0.309235 0.295999 -0.000004
v -0.175659 0.295999 -0.254513
v -0.087824 0.563815 -0.127258
v -0.152124 0.450622 -0.220413
v -0.037264 0.295999 -0.306999
v -0.018625 0.563815 -0.153503
v -0.032270 0.450622 -0.265869
v 0.094980 0.450622 -0.250420
v 0.109673 0.295999 -0.289158
v 0.115749 0.563815 -0.102539
v 0.200476 0.450622 -0.177601
v 0.231487 0.295999 -0.205074
v 0.260046 0.450622 -0.064098
v 0.300274 0.295999 -0.074013
v 0.150143 0.563815 -0.037010
v 0.260046 0.450622 0.064087
v 0.300274 0.295999 0.074001
v 0.150143 0.563815 0.036999
v 0.200476 0.450622 0.177589
v 0.231487 0.295999 0.205063
v 0.115749 0.563815 0.102528
v 0.094980 0.450622 0.250404
v 0.109673 0.295999 0.289143
v 0.054842 0.563815 0.144569
v -0.032270 0.450622 0.265858
v -0.037264 0.295999 0.306984
v -0.175659 0.295999 0.254498
v -0.018625 0.563815 0.153488
v -0.152124 0.450622 0.220402
v -0.273811 0.295999 0.143707
v -0.087824 0.563815 0.127247
v -0.237127 0.450622 0.124454
v -0.136900 0.563815 0.071850
v -0.018625 0.722379 0.153488
v 0.054842 0.563815 -0.144581
v -0.018625 0.722379 -0.153503
v 0.054842 0.722379 -0.144581
v 0.150143 0.722379 0.036999
v -0.087824 0.722379 -0.127258
v 0.150143 0.722379 -0.037010
v 0.054842 0.722379 0.144569
v 0.115749 0.722379 -0.102539
v -0.136900 0.722379 0.071850
v 0.115749 0.722379 0.102528
v -0.087824 0.722379 0.127247
v -0.154612 0.722379 -0.000004
v -0.154612 0.563815 -0.000004
v -0.136900 0.722379 -0.071865
v -0.309668 0.297319 -0.000004
v -0.274197 -0.256845 -0.143921
v -0.309668 -0.256845 -0.000004
v -0.274197 0.297319 -0.143921
v -0.175905 -0.256845 -0.254868
v -0.175905 0.297319 -0.254868
v -0.037315 -0.256845 -0.307426
v -0.037315 0.297319 -0.307426
v 0.109827 -0.256845 -0.289562
v 0.231812 0.297319 -0.205364
v 0.231812 -0.256845 -0.205364
v 0.300694 -0.256845 -0.074120
v 0.300694 0.297319 -0.074120
v 0.300694 -0.256845 0.074104
v 0.231812 0.297319 0.205349
v 0.231812 -0.256845 0.205349
v 0.109827 -0.256845 0.289551
v -0.037315 0.297319 0.307415
v -0.037315 -0.256845 0.307415
v -0.175905 0.297319 0.254856
v -0.175905 -0.256845 0.254856
v -0.274197 -0.256845 0.143909
v -0.274197 0.297319 0.143909
v 0.259756 -0.410823 0.065224
v 0.300594 -0.256201 -0.072697
v 0.299946 -0.256203 0.075314
v 0.260317 -0.410821 -0.062962
v 0.232382 -0.256196 -0.204060
v 0.096069 -0.410812 -0.250004
v 0.110937 -0.256190 -0.288673
v -0.035919 -0.256182 -0.307159
v -0.031113 -0.410807 -0.266010
v -0.174545 -0.256177 -0.255276
v -0.151165 -0.410802 -0.221081
v -0.273180 -0.256175 -0.144920
v -0.236588 -0.410800 -0.125504
v -0.309231 -0.256175 -0.001362
v -0.267807 -0.410800 -0.001183
v -0.274439 -0.256177 0.142506
v -0.153095 -0.410807 0.219734
v -0.176773 -0.256182 0.253727
v -0.033440 -0.410812 0.265713
v -0.038607 -0.256190 0.306820
v 0.108406 -0.256196 0.289623
v 0.199688 -0.410821 0.178463
v 0.230587 -0.256201 0.206074
v 0.201244 -0.455565 -0.176723
v 0.201244 -0.410818 -0.176723
v -0.267807 -0.455547 -0.001183
v 0.093878 -0.455565 0.250816
v 0.199688 -0.455570 0.178463
v -0.153095 -0.455555 0.219734
v -0.033440 -0.455561 0.265713
v -0.151165 -0.455550 -0.221081
v 0.259756 -0.455572 0.065224
v 0.096069 -0.455561 -0.250004
v -0.237675 -0.410802 0.123413
v -0.237675 -0.455550 0.123413
v 0.260317 -0.455570 -0.062962
v -0.236588 -0.455547 -0.125504
v 0.093878 -0.410818 0.250816
v -0.031113 -0.455555 -0.266010
v 0.231903 -0.455570 0.058228
v 0.232403 -0.495194 -0.056213
v 0.232405 -0.455569 -0.056213
v 0.085770 -0.455561 -0.223194
v 0.179665 -0.455565 -0.157772
v -0.027775 -0.455556 -0.237484
v -0.134954 -0.455552 -0.197372
v -0.211216 -0.455549 -0.112049
v -0.212189 -0.455552 0.110180
v -0.239090 -0.455549 -0.001057
v -0.136679 -0.455556 0.196171
v -0.029854 -0.455561 0.237217
v 0.083811 -0.455565 0.223923
v 0.178278 -0.455569 0.159325
v -0.134956 -0.495177 -0.197372
v 0.085766 -0.495186 -0.223194
v 0.231901 -0.495195 0.058228
v -0.212191 -0.495177 0.110180
v -0.136681 -0.495180 0.196171
v 0.179663 -0.495191 -0.157772
v -0.029854 -0.495186 0.237217
v 0.083809 -0.495191 0.223923
v -0.027777 -0.495180 -0.237488
v 0.178274 -0.495194 0.159325
v -0.211218 -0.495174 -0.112049
v -0.239092 -0.495174 -0.001057
v 0.109827 0.297319 -0.289562
v 0.300694 0.297319 0.074104
v 0.109827 0.297319 0.289551
vt 0.376314 0.220561
vt 0.451556 0.296927
vt 0.359810 0.279833
vt 0.284498 0.264402
vt 0.302347 0.193673
vt 0.277088 0.334881
vt 0.443440 0.344148
vt 0.351887 0.339568
vt 0.279275 0.403731
vt 0.441425 0.391132
vt 0.352082 0.398438
vt 0.359876 0.455319
vt 0.290279 0.469832
vt 0.454731 0.480669
vt 0.374708 0.509241
vt 0.309372 0.532233
vt 0.396003 0.559336
vt 0.335861 0.590108
vt 0.469207 0.521643
vt 0.423205 0.604779
vt 0.369122 0.642727
vt 0.488127 0.559149
vt 0.455839 0.644725
vt 0.408664 0.689429
vt 0.510733 0.592497
vt 0.493672 0.678262
vt 0.454197 0.729569
vt 0.536089 0.620905
vt 0.537195 0.704796
vt 0.505553 0.762558
vt 0.484170 0.059658
vt 0.372422 0.059266
vt 0.423847 0.000191
vt 0.537754 0.133103
vt 0.436840 0.109536
vt 0.331490 0.124505
vt 0.510265 0.166621
vt 0.401807 0.163289
vt 0.485631 0.206572
vt 0.612390 0.598357
vt 0.562793 0.643170
vt 0.445308 0.436917
vt 0.530627 0.392369
vt 0.531739 0.427322
vt 0.558874 0.522704
vt 0.533921 0.356635
vt 0.546217 0.492898
vt 0.592615 0.575280
vt 0.537040 0.460982
vt 0.570282 0.249943
vt 0.574531 0.550172
vt 0.590072 0.215755
vt 0.553935 0.284959
vt 0.465746 0.250603
vt 0.541713 0.320659
vt 0.747675 0.869592
vt 0.764836 0.939218
vt 0.621608 0.956609
vt 0.276707 0.222071
vt 0.000191 0.296031
vt 0.000191 0.222071
vt 0.276707 0.296031
vt 0.000191 0.369991
vt 0.276707 0.369990
vt 0.000191 0.443951
vt 0.276707 0.443950
vt 0.000191 0.517910
vt 0.276707 0.591870
vt 0.000191 0.591870
vt 0.000191 0.665830
vt 0.276707 0.665830
vt 0.000191 0.739790
vt 0.276707 0.813750
vt 0.000191 0.813750
vt 0.000191 0.887710
vt 0.276707 0.961670
vt 0.000191 0.961670
vt 0.000191 0.000191
vt 0.276707 0.074151
vt 0.000191 0.074151
vt 0.000191 0.148111
vt 0.276707 0.148111
vt 0.749973 0.201022
vt 0.647034 0.230429
vt 0.680102 0.161454
vt 0.722798 0.259636
vt 0.624845 0.303129
vt 0.693779 0.384234
vt 0.613428 0.377819
vt 0.612771 0.452935
vt 0.692790 0.447902
vt 0.622699 0.526958
vt 0.700847 0.510748
vt 0.642795 0.598469
vt 0.717812 0.571511
vt 0.672363 0.666378
vt 0.743540 0.628744
vt 0.710914 0.730646
vt 0.819132 0.733267
vt 0.759234 0.790605
vt 0.869499 0.778486
vt 0.816376 0.843782
vt 0.874054 0.063002
vt 0.772986 0.045981
vt 0.828335 0.000191
vt 0.785803 0.148115
vt 0.723110 0.099496
vt 0.725649 0.325890
vt 0.703849 0.321040
vt 0.762183 0.618821
vt 0.841809 0.117215
vt 0.803054 0.161677
vt 0.835993 0.717116
vt 0.886075 0.759600
vt 0.722349 0.506173
vt 0.770302 0.212436
vt 0.715932 0.385939
vt 0.776899 0.682918
vt 0.795137 0.669774
vt 0.743851 0.267548
vt 0.738276 0.563918
vt 0.827395 0.102174
vt 0.887444 0.079132
vt 0.714842 0.446446
vt 0.782303 0.219445
vt 0.774928 0.280236
vt 0.756800 0.272933
vt 0.729743 0.387474
vt 0.739172 0.329383
vt 0.728655 0.446002
vt 0.735881 0.503767
vt 0.751256 0.559594
vt 0.806547 0.661492
vt 0.774518 0.612485
vt 0.846581 0.706650
vt 0.893081 0.745186
vt 0.850839 0.126555
vt 0.893043 0.090623
vt 0.813850 0.170114
vt 0.382012 0.762940
vt 0.485694 0.802261
vt 0.485694 0.960488
vt 0.822187 0.649752
vt 0.860732 0.692450
vt 0.758062 0.334065
vt 0.905358 0.730429
vt 0.749003 0.389427
vt 0.864441 0.140358
vt 0.747887 0.445202
vt 0.829046 0.181699
vt 0.754691 0.500239
vt 0.799170 0.228988
vt 0.769260 0.553381
vt 0.791473 0.603487
vt 0.612390 0.180920
vt 0.680625 0.997346
vt 0.646096 0.984251
vt 0.612771 0.920754
vt 0.621608 0.884899
vt 0.646096 0.857258
vt 0.680625 0.844163
vt 0.717284 0.848614
vt 0.764837 0.902290
vt 0.747675 0.971917
vt 0.717284 0.992894
vt 0.276707 0.517910
vt 0.276707 0.739790
vt 0.276707 0.887710
vt 0.276707 0.000191
vt 0.512231 0.852823
vt 0.512231 0.909926
vt 0.438699 0.992926
vt 0.382013 0.999809
vt 0.328620 0.979560
vt 0.290754 0.936818
vt 0.277088 0.881374
vt 0.290754 0.825931
vt 0.328620 0.783189
vt 0.438699 0.769823
vt 0.905358 0.104790
vn -0.6966 0.6966 -0.1717
vn -0.9397 0.2518 -0.2316
vn -0.7244 0.2518 -0.6418
vn -0.5370 0.6966 -0.4758
vn -0.3432 0.2518 -0.9049
vn -0.2544 0.6966 -0.6708
vn 0.1167 0.2518 -0.9607
vn 0.0865 0.6966 -0.7122
vn 0.4076 0.6966 -0.5904
vn 0.5498 0.2518 -0.7965
vn 0.6353 0.6966 -0.3334
vn 0.8569 0.2518 -0.4498
vn 0.7175 0.6966 0.0000
vn 0.9678 0.2518 0.0000
vn 0.6353 0.6966 0.3334
vn 0.8569 0.2518 0.4498
vn 0.4075 0.6966 0.5905
vn 0.5498 0.2518 0.7965
vn 0.0865 0.6966 0.7122
vn 0.1167 0.2518 0.9607
vn -0.3432 0.2518 0.9049
vn -0.2544 0.6966 0.6708
vn -0.7244 0.2518 0.6418
vn -0.5370 0.6966 0.4758
vn -0.9397 0.2518 0.2316
vn -0.6966 0.6966 0.1717
vn 0.1205 0.0000 0.9927
vn 0.1206 0.0000 -0.9927
vn 1.0000 0.0000 0.0000
vn -0.3546 0.0000 -0.9350
vn 0.8854 0.0000 -0.4647
vn 0.5681 0.0000 0.8230
vn 0.5681 0.0000 -0.8230
vn -0.7485 0.0000 0.6631
vn -0.7485 0.0000 -0.6631
vn 0.8854 0.0000 0.4647
vn -0.3546 0.0000 0.9350
vn -0.9709 0.0000 0.2393
vn -0.9709 0.0000 -0.2393
vn 0.0000 1.0000 -0.0000
vn 0.1205 0.0000 -0.9927
vn 0.8855 0.0000 -0.4647
vn 0.8855 0.0000 0.4647
vn 0.9678 -0.2518 0.0042
vn 0.8589 -0.2518 -0.4460
vn 0.5532 -0.2518 -0.7941
vn 0.1209 -0.2518 -0.9602
vn -0.3392 -0.2518 -0.9064
vn -0.7216 -0.2517 -0.6449
vn -0.9387 -0.2517 -0.2357
vn -0.9407 -0.2517 0.2275
vn -0.7272 -0.2517 0.6386
vn -0.3472 -0.2518 0.9034
vn 0.1124 -0.2518 0.9612
vn 0.5463 -0.2518 0.7989
vn 0.8549 -0.2518 0.4535
vn 0.8875 0.0000 -0.4608
vn -0.9699 0.0000 -0.2436
vn 0.5645 0.0000 0.8255
vn -0.3587 0.0000 0.9335
vn -0.3505 0.0000 -0.9366
vn 0.8834 0.0000 0.4686
vn 0.5717 0.0000 -0.8205
vn -0.9720 0.0000 0.2351
vn 1.0000 0.0000 0.0044
vn -0.7456 0.0000 -0.6664
vn 0.1162 0.0000 0.9932
vn 0.1249 0.0000 -0.9922
vn -0.7514 0.0000 0.6598
vn -0.0000 -1.0000 -0.0000
vn -0.0001 -1.0000 -0.0000
vn 0.8875 -0.0000 -0.4609
vn 0.5717 -0.0001 -0.8205
vn 0.1249 0.0001 -0.9922
vn 0.5645 -0.0001 0.8255
vn 0.1166 0.2518 -0.9607
vn 0.8569 0.2518 -0.4497
vn 0.8569 0.2518 0.4497
vn 0.4076 0.6966 0.5905
vn 0.5497 0.2518 0.7965
vn -0.5370 0.6966 0.4757
vn 0.1208 -0.2518 -0.9602
vn -0.3392 -0.2517 -0.9064
vn -0.7216 -0.2518 -0.6449
vn -0.7272 -0.2518 0.6386
vn -0.3471 -0.2518 0.9034
vn 0.1125 -0.2518 0.9612
vn -0.3505 0.0001 -0.9366
vn 0.8834 -0.0001 0.4686
usemtl WaterBottle.001
s off
f 1/1/1 2/2/1 3/3/1
f 1/1/2 4/4/2 5/5/2
f 3/3/3 6/6/3 4/4/3
f 3/3/4 7/7/4 8/8/4
f 8/8/5 9/9/5 6/6/5
f 8/8/6 10/10/6 11/11/6
f 9/9/7 12/12/7 13/13/7
f 10/10/8 12/12/8 11/11/8
f 12/12/9 14/14/9 15/15/9
f 12/12/10 16/16/10 13/13/10
f 14/14/11 17/17/11 15/15/11
f 16/16/12 17/17/12 18/18/12
f 19/19/13 20/20/13 17/17/13
f 18/18/14 20/20/14 21/21/14
f 22/22/15 23/23/15 20/20/15
f 20/20/16 24/24/16 21/21/16
f 25/25/17 26/26/17 23/23/17
f 24/24/18 26/26/18 27/27/18
f 28/28/19 29/29/19 26/26/19
f 26/26/20 30/30/20 27/27/20
f 29/31/21 31/32/21 30/33/21
f 32/34/22 33/35/22 29/31/22
f 33/35/23 34/36/23 31/32/23
f 35/37/24 36/38/24 33/35/24
f 34/36/25 1/1/25 5/5/25
f 37/39/26 1/1/26 36/38/26
f 28/28/27 38/40/27 32/41/27
f 39/42/28 40/43/28 41/44/28
f 19/19/29 42/45/29 22/22/29
f 10/10/30 43/46/30 40/43/30
f 14/14/31 44/47/31 19/19/31
f 25/25/32 45/48/32 28/28/32
f 39/42/33 46/49/33 14/14/33
f 35/37/34 47/50/34 37/39/34
f 2/2/35 43/46/35 7/7/35
f 25/25/36 42/45/36 48/51/36
f 32/34/37 49/52/37 35/37/37
f 37/39/38 50/53/38 51/54/38
f 51/54/39 52/55/39 2/2/39
f 44/56/40 41/57/40 47/58/40
f 53/59/39 54/60/39 55/61/39
f 56/62/35 57/63/35 54/60/35
f 58/64/30 59/65/30 57/63/30
f 60/66/41 61/67/41 59/65/41
f 61/67/33 62/68/33 63/69/33
f 62/68/42 64/70/42 63/69/42
f 65/71/29 66/72/29 64/70/29
f 66/72/43 67/73/43 68/74/43
f 67/73/32 69/75/32 68/74/32
f 69/75/27 70/76/27 71/77/27
f 71/78/37 72/79/37 73/80/37
f 72/79/34 74/81/34 73/80/34
f 75/82/38 55/61/38 74/81/38
f 76/83/44 77/84/44 78/85/44
f 79/86/45 80/87/45 77/84/45
f 80/87/46 81/88/46 82/89/46
f 81/88/47 83/90/47 82/89/47
f 84/91/48 85/92/48 83/90/48
f 86/93/49 87/94/49 85/92/49
f 88/95/50 89/96/50 87/94/50
f 90/97/51 91/98/51 89/96/51
f 91/98/52 92/99/52 93/100/52
f 93/100/53 94/101/53 95/102/53
f 94/103/54 96/104/54 95/105/54
f 96/104/55 97/106/55 98/107/55
f 98/107/56 76/83/56 78/85/56
f 79/86/57 99/108/57 100/109/57
f 88/95/58 101/110/58 90/97/58
f 97/106/59 102/111/59 103/112/59
f 94/101/60 104/113/60 105/114/60
f 84/91/61 106/115/61 86/93/61
f 76/83/62 103/112/62 107/116/62
f 100/109/63 108/117/63 81/88/63
f 109/118/64 101/110/64 110/119/64
f 76/83/65 111/120/65 79/86/65
f 86/93/66 112/121/66 88/95/66
f 113/122/67 105/123/67 102/111/67
f 81/88/68 114/124/68 84/91/68
f 92/99/69 110/119/69 104/113/69
f 115/125/65 116/126/65 117/127/65
f 115/125/70 111/120/70 107/116/70
f 117/127/71 99/108/71 111/120/71
f 118/128/70 99/108/70 119/129/70
f 120/130/70 108/117/70 118/128/70
f 121/131/71 114/124/71 120/130/71
f 121/131/71 112/121/71 106/115/71
f 122/132/71 101/110/71 112/121/71
f 123/133/71 101/110/71 124/134/71
f 125/135/71 110/119/71 123/133/71
f 126/136/71 104/113/71 125/135/71
f 127/137/70 105/123/70 126/138/70
f 128/139/70 102/111/70 127/137/70
f 115/125/71 103/112/71 128/139/71
f 129/140/70 130/141/70 131/142/70
f 125/135/69 132/143/69 133/144/69
f 117/127/72 134/145/72 119/129/72
f 125/135/60 135/146/60 126/136/60
f 118/128/73 134/145/73 130/147/73
f 126/138/67 136/148/67 127/137/67
f 120/130/74 130/147/74 137/149/74
f 128/139/75 136/148/75 138/150/75
f 120/130/61 129/151/61 121/131/61
f 128/139/62 131/152/62 115/125/62
f 121/131/66 139/153/66 122/132/66
f 122/132/58 140/154/58 124/134/58
f 124/134/64 132/143/64 123/133/64
f 1/1/1 51/54/1 2/2/1
f 1/1/2 3/3/2 4/4/2
f 3/3/3 8/8/3 6/6/3
f 3/3/4 2/2/4 7/7/4
f 8/8/5 11/11/5 9/9/5
f 8/8/6 7/7/6 10/10/6
f 9/9/76 11/11/76 12/12/76
f 10/10/8 39/42/8 12/12/8
f 12/12/9 39/42/9 14/14/9
f 12/12/10 15/15/10 16/16/10
f 14/14/11 19/19/11 17/17/11
f 16/16/77 15/15/77 17/17/77
f 19/19/13 22/22/13 20/20/13
f 18/18/14 17/17/14 20/20/14
f 22/22/15 25/25/15 23/23/15
f 20/20/78 23/23/78 24/24/78
f 25/25/79 28/28/79 26/26/79
f 24/24/80 23/23/80 26/26/80
f 28/28/19 32/41/19 29/29/19
f 26/26/20 29/29/20 30/30/20
f 29/31/21 33/35/21 31/32/21
f 32/34/22 35/37/22 33/35/22
f 33/35/23 36/38/23 34/36/23
f 35/37/81 37/39/81 36/38/81
f 34/36/25 36/38/25 1/1/25
f 37/39/26 51/54/26 1/1/26
f 28/28/27 45/48/27 38/40/27
f 39/42/28 10/10/28 40/43/28
f 19/19/29 44/47/29 42/45/29
f 10/10/30 7/7/30 43/46/30
f 14/14/31 46/49/31 44/47/31
f 25/25/32 48/51/32 45/48/32
f 39/42/33 41/44/33 46/49/33
f 35/37/34 49/52/34 47/50/34
f 2/2/35 52/55/35 43/46/35
f 25/25/36 22/22/36 42/45/36
f 32/34/37 38/155/37 49/52/37
f 37/39/38 47/50/38 50/53/38
f 51/54/39 50/53/39 52/55/39
f 52/156/40 50/157/40 47/58/40
f 47/58/40 49/158/40 38/159/40
f 38/159/40 45/160/40 48/161/40
f 48/161/40 42/162/40 44/56/40
f 44/56/40 46/163/40 41/57/40
f 41/57/40 40/164/40 43/165/40
f 43/165/40 52/156/40 41/57/40
f 52/156/40 47/58/40 41/57/40
f 47/58/40 38/159/40 48/161/40
f 48/161/40 44/56/40 47/58/40
f 53/59/39 56/62/39 54/60/39
f 56/62/35 58/64/35 57/63/35
f 58/64/30 60/66/30 59/65/30
f 60/66/41 141/166/41 61/67/41
f 61/67/33 141/166/33 62/68/33
f 62/68/42 65/71/42 64/70/42
f 65/71/29 142/167/29 66/72/29
f 66/72/43 142/167/43 67/73/43
f 67/73/32 143/168/32 69/75/32
f 69/75/27 143/168/27 70/76/27
f 71/78/37 70/169/37 72/79/37
f 72/79/34 75/82/34 74/81/34
f 75/82/38 53/59/38 55/61/38
f 76/83/44 79/86/44 77/84/44
f 79/86/45 100/109/45 80/87/45
f 80/87/46 100/109/46 81/88/46
f 81/88/82 84/91/82 83/90/82
f 84/91/83 86/93/83 85/92/83
f 86/93/84 88/95/84 87/94/84
f 88/95/50 90/97/50 89/96/50
f 90/97/51 109/118/51 91/98/51
f 91/98/85 109/118/85 92/99/85
f 93/100/86 92/99/86 94/101/86
f 94/103/87 113/122/87 96/104/87
f 96/104/55 113/122/55 97/106/55
f 98/107/56 97/106/56 76/83/56
f 79/86/57 111/120/57 99/108/57
f 88/95/58 112/121/58 101/110/58
f 97/106/59 113/122/59 102/111/59
f 94/101/60 92/99/60 104/113/60
f 84/91/61 114/124/61 106/115/61
f 76/83/62 97/106/62 103/112/62
f 100/109/63 99/108/63 108/117/63
f 109/118/64 90/97/64 101/110/64
f 76/83/65 107/116/65 111/120/65
f 86/93/66 106/115/66 112/121/66
f 113/122/67 94/103/67 105/123/67
f 81/88/68 108/117/68 114/124/68
f 92/99/69 109/118/69 110/119/69
f 115/125/65 131/152/65 116/126/65
f 115/125/71 117/127/71 111/120/71
f 117/127/70 119/129/70 99/108/70
f 118/128/70 108/117/70 99/108/70
f 120/130/70 114/124/70 108/117/70
f 121/131/70 106/115/70 114/124/70
f 121/131/71 122/132/71 112/121/71
f 122/132/71 124/134/71 101/110/71
f 123/133/71 110/119/71 101/110/71
f 125/135/71 104/113/71 110/119/71
f 126/136/70 105/114/70 104/113/70
f 127/137/70 102/111/70 105/123/70
f 128/139/71 103/112/71 102/111/71
f 115/125/70 107/116/70 103/112/70
f 134/170/70 116/171/70 131/142/70
f 131/142/70 138/172/70 136/173/70
f 136/173/70 135/174/70 133/175/70
f 133/175/70 132/176/70 140/177/70
f 140/177/71 139/178/71 129/140/71
f 129/140/70 137/179/70 130/141/70
f 130/141/70 134/170/70 131/142/70
f 131/142/70 136/173/70 129/140/70
f 136/173/70 133/175/70 129/140/70
f 133/175/70 140/177/70 129/140/70
f 125/135/69 123/133/69 132/143/69
f 117/127/72 116/126/72 134/145/72
f 125/135/60 133/144/60 135/146/60
f 118/128/63 119/129/63 134/145/63
f 126/138/67 135/180/67 136/148/67
f 120/130/68 118/128/68 130/147/68
f 128/139/59 127/137/59 136/148/59
f 120/130/88 137/149/88 129/151/88
f 128/139/89 138/150/89 131/152/89
f 121/131/66 129/151/66 139/153/66
f 122/132/58 139/153/58 140/154/58
f 124/134/64 140/154/64 132/143/64
