# Blender v2.81 (sub 16) OBJ File: 'WaterBottle.blend'
# www.blender.org
mtllib WaterBottle_frame_7.mtl
o Water_Bottle_Sphere.003
v -0.035559 1.223540 -0.263713
v 0.088902 1.223540 -0.233036
v 0.108256 1.069577 -0.269913
v -0.035559 1.069577 -0.305360
v 0.219125 1.069577 -0.171691
v 0.184849 1.223540 -0.148033
v 0.271649 1.069577 -0.033198
v 0.230305 1.223540 -0.028179
v 0.214854 1.223540 0.099072
v 0.253795 1.069577 0.113841
v 0.142036 1.223540 0.204566
v 0.169654 1.069577 0.235741
v 0.028534 1.223540 0.264137
v 0.038502 1.069577 0.304574
v -0.099651 1.223540 0.264137
v -0.109618 1.069577 0.304574
v -0.213152 1.223540 0.204566
v -0.240771 1.069577 0.235741
v -0.285970 1.223540 0.099072
v -0.324911 1.069577 0.113841
v -0.301421 1.223540 -0.028179
v -0.342765 1.069577 -0.033198
v -0.290241 1.069577 -0.171691
v -0.255966 1.223540 -0.148033
v -0.179373 1.069577 -0.269913
v -0.160018 1.223540 -0.233036
v 0.100625 1.336733 0.055751
v -0.035559 1.336733 -0.141545
v 0.108855 0.247874 -0.269597
v -0.034881 0.247874 -0.305359
v 0.219509 0.247873 -0.171134
v 0.271729 0.247870 -0.032525
v 0.253554 0.247867 0.114473
v 0.169146 0.247863 0.236188
v 0.037844 0.247861 0.304735
v -0.110275 0.247860 0.304411
v -0.241276 0.247861 0.235290
v -0.325150 0.247863 0.113207
v -0.342980 0.247539 -0.033224
v -0.289855 0.247870 -0.172248
v -0.178772 0.247873 -0.270226
v -0.100786 0.093561 0.263847
v 0.027397 0.093563 0.264408
v 0.214437 0.093572 0.100161
v 0.230446 0.093577 -0.027021
v 0.185515 0.093581 -0.147073
v 0.089941 0.093585 -0.232496
v -0.034384 0.093585 -0.263716
v -0.255297 0.093577 -0.149004
v -0.301275 0.093572 -0.029348
v -0.342384 0.248194 -0.034515
v -0.214027 0.093563 0.203779
v 0.141160 0.048818 0.205336
v 0.141160 0.093566 0.205336
v -0.034384 0.048837 -0.263716
v -0.286382 0.048818 0.097968
v -0.214027 0.048814 0.203779
v -0.255297 0.048829 -0.149004
v -0.301275 0.048823 -0.029348
v 0.185515 0.048834 -0.147073
v -0.100786 0.048812 0.263847
v 0.214437 0.048823 0.100161
v -0.158978 0.093581 -0.233584
v -0.158978 0.048834 -0.233584
v 0.027397 0.048814 0.264408
v 0.089941 0.048837 -0.232496
v -0.286382 0.093566 0.097968
v 0.230446 0.048829 -0.027021
v -0.093792 0.048814 0.235994
v 0.020647 0.009190 0.236494
v 0.020647 0.048815 0.236495
v 0.187630 0.048823 0.089860
v 0.122209 0.048818 0.183756
v 0.201921 0.048828 -0.023684
v 0.161810 0.048832 -0.130864
v 0.076483 0.048835 -0.207126
v -0.145743 0.048832 -0.208098
v -0.034509 0.048835 -0.235000
v -0.231734 0.048828 -0.132587
v -0.272782 0.048823 -0.025762
v -0.259485 0.048818 0.087902
v -0.194890 0.048815 0.182369
v 0.161810 0.009207 -0.130865
v 0.187630 0.009198 0.089857
v -0.093792 0.009189 0.235992
v -0.145743 0.009207 -0.208100
v -0.231734 0.009204 -0.132589
v 0.122209 0.009193 0.183755
v -0.272782 0.009198 -0.025763
v -0.259485 0.009193 0.087900
v 0.201923 0.009204 -0.023685
v -0.194890 0.009190 0.182366
v 0.076485 0.009210 -0.207127
v -0.034509 0.009210 -0.235001
v -0.171741 1.336733 0.055751
v -0.180144 1.336733 -0.013452
v -0.000702 1.336733 0.145520
v -0.070415 1.336733 0.145520
v 0.061024 1.336733 0.113123
v -0.132141 1.336733 0.113123
v -0.155424 1.336733 -0.078635
v -0.103245 1.336733 -0.124862
v 0.032128 1.336733 -0.124862
v 0.084308 1.336733 -0.078635
v 0.109028 1.336733 -0.013452
v -0.035559 1.323321 -0.144093
v 0.103007 1.323321 0.056654
v 0.033312 1.475294 -0.127117
v -0.035559 1.475294 -0.144093
v -0.157521 1.475294 -0.080082
v -0.133830 1.475294 0.115030
v -0.104429 1.475294 -0.127117
v 0.062714 1.475294 0.115030
v -0.174123 1.475294 0.056654
v -0.000092 1.475294 0.147993
v 0.086404 1.475294 -0.080082
v -0.071024 1.475294 0.147993
v 0.103007 1.475294 0.056654
v 0.111557 1.475294 -0.013759
v -0.182673 1.475294 -0.013759
v -0.104429 1.323321 -0.127118
v -0.157521 1.323321 -0.080082
v -0.182673 1.323321 -0.013759
v -0.174123 1.323321 0.056654
v -0.133830 1.323321 0.115030
v -0.071024 1.323321 0.147993
v -0.000092 1.323321 0.147993
v 0.062714 1.323321 0.115030
v 0.111557 1.323321 -0.013759
v 0.086404 1.323321 -0.080082
v 0.033312 1.323321 -0.127118
v -0.035559 1.323321 -0.099571
v 0.061378 1.323321 0.040866
v 0.012622 1.475294 -0.087695
v -0.035559 1.475294 -0.099571
v -0.120880 1.475294 -0.054791
v -0.104307 1.475294 0.081704
v -0.083738 1.475294 -0.087695
v 0.033190 1.475294 0.081704
v -0.132495 1.475294 0.040866
v -0.010746 1.475294 0.104765
v 0.049764 1.475294 -0.054791
v -0.060370 1.475294 0.104765
v 0.061378 1.475294 0.040866
v 0.067359 1.475294 -0.008393
v -0.138475 1.475294 -0.008393
v -0.083738 1.323321 -0.087695
v -0.120880 1.323321 -0.054791
v -0.138475 1.323321 -0.008393
v -0.132495 1.323321 0.040866
v -0.104307 1.323321 0.081704
v -0.060370 1.323321 0.104765
v -0.010746 1.323321 0.104765
v 0.033190 1.323321 0.081704
v 0.067359 1.323321 -0.008393
v 0.049764 1.323321 -0.054791
v 0.012622 1.323321 -0.087695
vt 0.376314 0.220561
vt 0.451556 0.296927
vt 0.359810 0.279833
vt 0.284498 0.264402
vt 0.302347 0.193673
vt 0.277088 0.334881
vt 0.443440 0.344148
vt 0.351887 0.339568
vt 0.279275 0.403731
vt 0.441425 0.391132
vt 0.352082 0.398438
vt 0.359876 0.455319
vt 0.290279 0.469832
vt 0.454731 0.480669
vt 0.374708 0.509241
vt 0.309372 0.532233
vt 0.396003 0.559336
vt 0.335861 0.590108
vt 0.469207 0.521643
vt 0.423205 0.604779
vt 0.369122 0.642727
vt 0.488127 0.559149
vt 0.455839 0.644725
vt 0.408664 0.689429
vt 0.510733 0.592497
vt 0.493672 0.678262
vt 0.454197 0.729569
vt 0.536089 0.620905
vt 0.537195 0.704796
vt 0.505553 0.762558
vt 0.484170 0.059658
vt 0.372422 0.059266
vt 0.423847 0.000191
vt 0.537754 0.133103
vt 0.436840 0.109536
vt 0.331490 0.124505
vt 0.510265 0.166621
vt 0.401807 0.163289
vt 0.485631 0.206572
vt 0.276707 0.222071
vt 0.000191 0.296031
vt 0.000191 0.222071
vt 0.276707 0.296031
vt 0.000191 0.369991
vt 0.276707 0.369990
vt 0.000191 0.443951
vt 0.276707 0.443950
vt 0.000191 0.517910
vt 0.276707 0.591870
vt 0.000191 0.591870
vt 0.000191 0.665830
vt 0.276707 0.665830
vt 0.000191 0.739790
vt 0.276707 0.813750
vt 0.000191 0.813750
vt 0.000191 0.887710
vt 0.276707 0.961670
vt 0.000191 0.961670
vt 0.000191 0.000191
vt 0.276707 0.074151
vt 0.000191 0.074151
vt 0.000191 0.148111
vt 0.276707 0.148111
vt 0.749973 0.201022
vt 0.647034 0.230429
vt 0.680102 0.161454
vt 0.722798 0.259636
vt 0.624845 0.303129
vt 0.693779 0.384234
vt 0.613428 0.377819
vt 0.612771 0.452935
vt 0.692790 0.447902
vt 0.622699 0.526958
vt 0.700847 0.510748
vt 0.642795 0.598469
vt 0.717812 0.571511
vt 0.672363 0.666378
vt 0.743540 0.628744
vt 0.710914 0.730646
vt 0.819132 0.733267
vt 0.759234 0.790605
vt 0.869499 0.778486
vt 0.816376 0.843782
vt 0.874054 0.063002
vt 0.772986 0.045981
vt 0.828335 0.000191
vt 0.785803 0.148115
vt 0.723110 0.099496
vt 0.725649 0.325890
vt 0.703849 0.321040
vt 0.762183 0.618821
vt 0.841809 0.117215
vt 0.803054 0.161677
vt 0.835993 0.717116
vt 0.886075 0.759600
vt 0.722349 0.506173
vt 0.770302 0.212436
vt 0.715932 0.385939
vt 0.776899 0.682918
vt 0.795137 0.669774
vt 0.743851 0.267548
vt 0.738276 0.563918
vt 0.827395 0.102174
vt 0.887444 0.079132
vt 0.714842 0.446446
vt 0.782303 0.219445
vt 0.774928 0.280236
vt 0.756800 0.272933
vt 0.729743 0.387474
vt 0.739172 0.329383
vt 0.728655 0.446002
vt 0.735881 0.503767
vt 0.751256 0.559594
vt 0.806547 0.661492
vt 0.774518 0.612485
vt 0.846581 0.706650
vt 0.893081 0.745186
vt 0.850839 0.126555
vt 0.893043 0.090623
vt 0.813850 0.170114
vt 0.382012 0.762940
vt 0.485694 0.802261
vt 0.485694 0.960488
vt 0.822187 0.649752
vt 0.860732 0.692450
vt 0.758062 0.334065
vt 0.905358 0.730429
vt 0.749003 0.389427
vt 0.864441 0.140358
vt 0.747887 0.445202
vt 0.829046 0.181699
vt 0.754691 0.500239
vt 0.799170 0.228988
vt 0.769260 0.553381
vt 0.791473 0.603487
vt 0.465746 0.250603
vt 0.445308 0.436917
vt 0.562793 0.643170
vt 0.276707 0.517910
vt 0.276707 0.739790
vt 0.276707 0.887710
vt 0.276707 0.000191
vt 0.512231 0.852823
vt 0.512231 0.909926
vt 0.438699 0.992926
vt 0.382013 0.999809
vt 0.328620 0.979560
vt 0.290754 0.936818
vt 0.277088 0.881374
vt 0.290754 0.825931
vt 0.328620 0.783189
vt 0.438699 0.769823
vt 0.905358 0.104790
vt 0.465746 0.250603
vt 0.553935 0.284959
vt 0.541713 0.320659
vt 0.451556 0.296927
vt 0.485631 0.206572
vt 0.570282 0.249943
vt 0.533921 0.356635
vt 0.443440 0.344148
vt 0.510265 0.166621
vt 0.590072 0.215755
vt 0.510733 0.592497
vt 0.574531 0.550172
vt 0.592615 0.575280
vt 0.536089 0.620905
vt 0.441425 0.391132
vt 0.530627 0.392369
vt 0.454731 0.480669
vt 0.537040 0.460982
vt 0.546217 0.492898
vt 0.469207 0.521643
vt 0.612390 0.598357
vt 0.562793 0.643170
vt 0.558874 0.522704
vt 0.488127 0.559149
vt 0.445308 0.436917
vt 0.531739 0.427322
vt 0.537754 0.133103
vt 0.612390 0.180920
vt 0.465746 0.250603
vt 0.451556 0.296927
vt 0.541713 0.320659
vt 0.553935 0.284959
vt 0.485631 0.206572
vt 0.570282 0.249943
vt 0.443440 0.344148
vt 0.533921 0.356635
vt 0.510265 0.166621
vt 0.590072 0.215755
vt 0.510733 0.592497
vt 0.536089 0.620905
vt 0.592615 0.575280
vt 0.574531 0.550172
vt 0.441425 0.391132
vt 0.530627 0.392369
vt 0.454731 0.480669
vt 0.469207 0.521643
vt 0.546217 0.492898
vt 0.537040 0.460982
vt 0.562793 0.643170
vt 0.612390 0.598357
vt 0.488127 0.559149
vt 0.558874 0.522704
vt 0.445308 0.436917
vt 0.531739 0.427322
vt 0.537754 0.133103
vt 0.612390 0.180920
vn 0.1652 0.7235 -0.6703
vn 0.2315 0.2540 -0.9391
vn 0.6414 0.2540 -0.7240
vn 0.4578 0.7235 -0.5167
vn 0.9043 0.2540 -0.3430
vn 0.6455 0.7235 -0.2448
vn 0.9601 0.2540 0.1166
vn 0.6853 0.7235 0.0832
vn 0.5682 0.7235 0.3922
vn 0.7960 0.2540 0.5494
vn 0.3208 0.7235 0.6113
vn 0.4495 0.2540 0.8564
vn 0.0000 0.7235 0.6904
vn 0.0000 0.2540 0.9672
vn -0.3208 0.7235 0.6113
vn -0.4495 0.2540 0.8564
vn -0.5682 0.7235 0.3922
vn -0.7960 0.2540 0.5494
vn -0.6853 0.7235 0.0832
vn -0.9601 0.2540 0.1166
vn -0.9043 0.2540 -0.3430
vn -0.6455 0.7235 -0.2448
vn -0.6414 0.2540 -0.7240
vn -0.4578 0.7235 -0.5167
vn -0.2315 0.2540 -0.9391
vn -0.1652 0.7235 -0.6703
vn 0.2414 0.0002 -0.9704
vn 0.6648 0.0002 -0.7471
vn 0.9358 0.0002 -0.3526
vn 0.9924 0.0002 0.1227
vn 0.8217 -0.0002 0.5699
vn 0.4628 0.0002 0.8865
vn -0.0022 0.0002 1.0000
vn -0.4667 -0.0002 0.8844
vn -0.8242 0.0002 0.5663
vn -0.9927 0.0003 0.1209
vn -0.9341 -0.0002 -0.3570
vn -0.6615 0.0002 -0.7500
vn -0.2372 0.0002 -0.9715
vn -0.0021 -0.2544 0.9671
vn 0.4476 -0.2544 0.8573
vn 0.7951 -0.2527 0.5514
vn 0.9598 -0.2543 0.1187
vn 0.9050 -0.2543 -0.3410
vn 0.6429 -0.2543 -0.7225
vn 0.2335 -0.2543 -0.9385
vn -0.2294 -0.2543 -0.9395
vn -0.6400 -0.2527 -0.7256
vn -0.9044 -0.2520 -0.3443
vn -0.9613 -0.2519 0.1116
vn -0.7975 -0.2527 0.5479
vn -0.4515 -0.2527 0.8557
vn 0.4608 0.0000 0.8875
vn 0.2436 0.0000 -0.9699
vn -0.8255 0.0000 0.5645
vn -0.9335 0.0000 -0.3587
vn 0.9366 0.0000 -0.3505
vn -0.4686 -0.0000 0.8834
vn 0.8205 -0.0000 0.5717
vn -0.2351 -0.0000 -0.9720
vn -0.0044 -0.0000 1.0000
vn 0.6664 -0.0000 -0.7456
vn -0.9932 0.0000 0.1162
vn 0.9922 0.0000 0.1249
vn -0.6598 0.0000 -0.7514
vn 0.0000 -1.0000 -0.0001
vn 0.0000 -1.0000 -0.0000
vn 0.6664 0.0001 -0.7456
vn 0.4578 0.7235 -0.5168
vn -0.4578 0.7235 -0.5168
vn 0.2393 -0.0002 -0.9709
vn 0.6631 -0.0002 -0.7485
vn 0.9350 -0.0002 -0.3546
vn 0.9927 -0.0002 0.1205
vn 0.8230 0.0002 0.5681
vn 0.4647 -0.0002 0.8855
vn 0.0000 -0.0002 1.0000
vn -0.4647 0.0002 0.8855
vn -0.8230 -0.0002 0.5681
vn -0.9927 0.0002 0.1205
vn -0.9350 0.0003 -0.3546
vn -0.6631 -0.0002 -0.7485
vn -0.2393 -0.0002 -0.9709
vn -0.0042 -0.2526 0.9676
vn 0.4459 -0.2526 0.8587
vn 0.7935 -0.2545 0.5528
vn 0.9600 -0.2526 0.1208
vn 0.9062 -0.2525 -0.3392
vn 0.6448 -0.2525 -0.7214
vn 0.2357 -0.2525 -0.9385
vn -0.2274 -0.2525 -0.9405
vn -0.6381 -0.2544 -0.7267
vn -0.9027 -0.2545 -0.3469
vn -0.9610 -0.2526 0.1124
vn -0.7983 -0.2545 0.5459
vn -0.4532 -0.2545 0.8543
vn 0.0001 -1.0000 -0.0000
vn -0.8255 -0.0000 0.5644
vn -0.4686 -0.0001 0.8834
vn 0.2393 0.0000 -0.9709
vn -0.2393 0.0000 -0.9709
vn 0.6631 0.0000 -0.7485
vn -0.6631 0.0000 -0.7485
vn -0.8230 -0.0000 0.5681
vn 0.9350 0.0000 -0.3546
vn 0.4647 -0.0000 0.8855
vn -0.9927 -0.0000 0.1205
vn 0.0000 -0.0000 1.0000
vn 0.9927 -0.0000 0.1205
vn -0.4647 -0.0000 0.8855
vn 0.8230 -0.0000 0.5681
vn -0.9350 0.0000 -0.3546
vn -0.2393 -0.0000 0.9709
vn 0.2393 -0.0000 0.9709
vn -0.6631 -0.0000 0.7485
vn 0.6631 -0.0000 0.7485
vn 0.8230 0.0000 -0.5681
vn -0.9350 -0.0000 0.3546
vn -0.4647 0.0000 -0.8854
vn 0.9927 0.0000 -0.1205
vn 0.0000 0.0000 -1.0000
vn -0.9927 0.0000 -0.1205
vn 0.4647 0.0000 -0.8854
vn -0.8230 0.0000 -0.5681
vn 0.9350 0.0000 0.3546
vn 0.0000 1.0000 -0.0000
usemtl WaterBottle
s off
f 1/1/1 103/2/1 2/3/1
f 1/1/2 3/4/2 4/5/2
f 2/3/3 5/6/3 3/4/3
f 2/3/4 104/7/4 6/8/4
f 6/8/5 7/9/5 5/6/5
f 6/8/6 105/10/6 8/11/6
f 7/9/7 9/12/7 10/13/7
f 105/10/8 9/12/8 8/11/8
f 9/12/9 99/14/9 11/15/9
f 9/12/10 12/16/10 10/13/10
f 99/14/11 13/17/11 11/15/11
f 12/16/12 13/17/12 14/18/12
f 97/19/13 15/20/13 13/17/13
f 14/18/14 15/20/14 16/21/14
f 98/22/15 17/23/15 15/20/15
f 15/20/16 18/24/16 16/21/16
f 100/25/17 19/26/17 17/23/17
f 18/24/18 19/26/18 20/27/18
f 95/28/19 21/29/19 19/26/19
f 19/26/20 22/30/20 20/27/20
f 21/31/21 23/32/21 22/33/21
f 96/34/22 24/35/22 21/31/22
f 24/35/23 25/36/23 23/32/23
f 101/37/24 26/38/24 24/35/24
f 25/36/25 1/1/25 4/5/25
f 102/39/26 1/1/26 26/38/26
f 4/40/27 29/41/27 30/42/27
f 3/43/28 31/44/28 29/41/28
f 5/45/29 32/46/29 31/44/29
f 7/47/30 33/48/30 32/46/30
f 33/48/31 12/49/31 34/50/31
f 12/49/32 35/51/32 34/50/32
f 14/52/33 36/53/33 35/51/33
f 36/53/34 18/54/34 37/55/34
f 18/54/35 38/56/35 37/55/35
f 38/56/36 22/57/36 39/58/36
f 39/59/37 23/60/37 40/61/37
f 23/60/38 41/62/38 40/61/38
f 25/63/39 30/42/39 41/62/39
f 42/64/40 35/65/40 36/66/40
f 43/67/41 34/68/41 35/65/41
f 34/68/42 44/69/42 33/70/42
f 44/69/43 32/71/43 33/70/43
f 45/72/44 31/73/44 32/71/44
f 46/74/45 29/75/45 31/73/45
f 47/76/46 30/77/46 29/75/46
f 48/78/47 41/79/47 30/77/47
f 41/79/48 49/80/48 40/81/48
f 40/81/49 50/82/49 51/83/49
f 50/84/50 38/85/50 51/86/50
f 38/85/51 52/87/51 37/88/51
f 37/88/52 42/64/52 36/66/52
f 43/67/53 53/89/53 54/90/53
f 47/76/54 55/91/54 48/78/54
f 52/87/55 56/92/55 57/93/55
f 50/82/56 58/94/56 59/95/56
f 45/72/57 60/96/57 46/74/57
f 42/64/58 57/93/58 61/97/58
f 54/90/59 62/98/59 44/69/59
f 63/99/60 55/91/60 64/100/60
f 42/64/61 65/101/61 43/67/61
f 46/74/62 66/102/62 47/76/62
f 67/103/63 59/104/63 56/92/63
f 44/69/64 68/105/64 45/72/64
f 49/80/65 64/100/65 58/94/65
f 69/106/61 70/107/61 71/108/61
f 69/106/66 65/101/66 61/97/66
f 71/108/66 53/89/66 65/101/66
f 72/109/67 53/89/67 73/110/67
f 74/111/67 62/98/67 72/109/67
f 75/112/66 68/105/66 74/111/66
f 75/112/66 66/102/66 60/96/66
f 76/113/66 55/91/66 66/102/66
f 77/114/66 55/91/66 78/115/66
f 79/116/66 64/100/66 77/114/66
f 80/117/66 58/94/66 79/116/66
f 81/118/67 59/104/67 80/119/67
f 82/120/67 56/92/67 81/118/67
f 69/106/66 57/93/66 82/120/66
f 83/121/67 84/122/67 85/123/67
f 79/116/65 86/124/65 87/125/65
f 71/108/53 88/126/53 73/110/53
f 79/116/56 89/127/56 80/117/56
f 72/109/59 88/126/59 84/128/59
f 80/119/63 90/129/63 81/118/63
f 74/111/64 84/128/64 91/130/64
f 82/120/55 90/129/55 92/131/55
f 74/111/57 83/132/57 75/112/57
f 82/120/58 85/133/58 69/106/58
f 75/112/68 93/134/68 76/113/68
f 76/113/54 94/135/54 78/115/54
f 78/115/60 86/124/60 77/114/60
f 1/1/1 28/136/1 103/2/1
f 1/1/2 2/3/2 3/4/2
f 2/3/3 6/8/3 5/6/3
f 2/3/69 103/2/69 104/7/69
f 6/8/5 8/11/5 7/9/5
f 6/8/6 104/7/6 105/10/6
f 7/9/7 8/11/7 9/12/7
f 105/10/8 27/137/8 9/12/8
f 9/12/9 27/137/9 99/14/9
f 9/12/10 11/15/10 12/16/10
f 99/14/11 97/19/11 13/17/11
f 12/16/12 11/15/12 13/17/12
f 97/19/13 98/22/13 15/20/13
f 14/18/14 13/17/14 15/20/14
f 98/22/15 100/25/15 17/23/15
f 15/20/16 17/23/16 18/24/16
f 100/25/17 95/28/17 19/26/17
f 18/24/18 17/23/18 19/26/18
f 95/28/19 96/138/19 21/29/19
f 19/26/20 21/29/20 22/30/20
f 21/31/21 24/35/21 23/32/21
f 96/34/22 101/37/22 24/35/22
f 24/35/23 26/38/23 25/36/23
f 101/37/70 102/39/70 26/38/70
f 25/36/25 26/38/25 1/1/25
f 102/39/26 28/136/26 1/1/26
f 4/40/71 3/43/71 29/41/71
f 3/43/72 5/45/72 31/44/72
f 5/45/73 7/47/73 32/46/73
f 7/47/74 10/139/74 33/48/74
f 33/48/75 10/139/75 12/49/75
f 12/49/76 14/52/76 35/51/76
f 14/52/77 16/140/77 36/53/77
f 36/53/78 16/140/78 18/54/78
f 18/54/79 20/141/79 38/56/79
f 38/56/80 20/141/80 22/57/80
f 39/59/81 22/142/81 23/60/81
f 23/60/82 25/63/82 41/62/82
f 25/63/83 4/40/83 30/42/83
f 42/64/84 43/67/84 35/65/84
f 43/67/85 54/90/85 34/68/85
f 34/68/86 54/90/86 44/69/86
f 44/69/87 45/72/87 32/71/87
f 45/72/88 46/74/88 31/73/88
f 46/74/89 47/76/89 29/75/89
f 47/76/90 48/78/90 30/77/90
f 48/78/91 63/99/91 41/79/91
f 41/79/92 63/99/92 49/80/92
f 40/81/93 49/80/93 50/82/93
f 50/84/94 67/103/94 38/85/94
f 38/85/95 67/103/95 52/87/95
f 37/88/96 52/87/96 42/64/96
f 43/67/53 65/101/53 53/89/53
f 47/76/54 66/102/54 55/91/54
f 52/87/55 67/103/55 56/92/55
f 50/82/56 49/80/56 58/94/56
f 45/72/57 68/105/57 60/96/57
f 42/64/58 52/87/58 57/93/58
f 54/90/59 53/89/59 62/98/59
f 63/99/60 48/78/60 55/91/60
f 42/64/61 61/97/61 65/101/61
f 46/74/62 60/96/62 66/102/62
f 67/103/63 50/84/63 59/104/63
f 44/69/64 62/98/64 68/105/64
f 49/80/65 63/99/65 64/100/65
f 69/106/61 85/133/61 70/107/61
f 69/106/66 71/108/66 65/101/66
f 71/108/67 73/110/67 53/89/67
f 72/109/67 62/98/67 53/89/67
f 74/111/67 68/105/67 62/98/67
f 75/112/66 60/96/66 68/105/66
f 75/112/66 76/113/66 66/102/66
f 76/113/66 78/115/66 55/91/66
f 77/114/66 64/100/66 55/91/66
f 79/116/66 58/94/66 64/100/66
f 80/117/67 59/95/67 58/94/67
f 81/118/67 56/92/67 59/104/67
f 82/120/66 57/93/66 56/92/66
f 69/106/66 61/97/66 57/93/66
f 88/143/67 70/144/67 85/123/67
f 85/123/67 92/145/67 90/146/67
f 90/146/67 89/147/67 87/148/67
f 87/148/67 86/149/67 94/150/67
f 94/150/66 93/151/66 83/121/66
f 83/121/97 91/152/97 84/122/97
f 84/122/67 88/143/67 85/123/67
f 85/123/67 90/146/67 83/121/67
f 90/146/67 87/148/67 83/121/67
f 87/148/67 94/150/67 83/121/67
f 79/116/65 77/114/65 86/124/65
f 71/108/53 70/107/53 88/126/53
f 79/116/56 87/125/56 89/127/56
f 72/109/59 73/110/59 88/126/59
f 80/119/63 89/153/63 90/129/63
f 74/111/64 72/109/64 84/128/64
f 82/120/98 81/118/98 90/129/98
f 74/111/57 91/130/57 83/132/57
f 82/120/99 92/131/99 85/133/99
f 75/112/62 83/132/62 93/134/62
f 76/113/54 93/134/54 94/135/54
f 78/115/60 94/135/60 86/124/60
f 106/154/100 109/155/100 108/156/100 131/157/100
f 121/158/101 112/159/101 109/155/101 106/154/101
f 131/157/102 108/156/102 116/160/102 130/161/102
f 122/162/103 110/163/103 112/159/103 121/158/103
f 125/164/104 111/165/104 114/166/104 124/167/104
f 129/168/105 130/161/105 116/160/105 119/169/105
f 128/170/106 113/171/106 115/172/106 127/173/106
f 124/167/107 114/166/107 120/174/107 123/175/107
f 127/173/108 115/172/108 117/176/108 126/177/108
f 107/178/109 129/168/109 119/169/109 118/179/109
f 125/164/110 126/177/110 117/176/110 111/165/110
f 107/178/111 118/179/111 113/171/111 128/170/111
f 123/180/112 120/181/112 110/163/112 122/162/112
f 132/182/113 157/183/113 134/184/113 135/185/113
f 147/186/114 132/182/114 135/185/114 138/187/114
f 157/183/115 156/188/115 142/189/115 134/184/115
f 148/190/116 147/186/116 138/187/116 136/191/116
f 151/192/117 150/193/117 140/194/117 137/195/117
f 155/196/118 145/197/118 142/189/118 156/188/118
f 154/198/119 153/199/119 141/200/119 139/201/119
f 150/193/120 149/202/120 146/203/120 140/194/120
f 153/199/121 152/204/121 143/205/121 141/200/121
f 133/206/122 144/207/122 145/197/122 155/196/122
f 151/192/123 137/195/123 143/205/123 152/204/123
f 133/206/124 154/198/124 139/201/124 144/207/124
f 149/208/125 148/190/125 136/191/125 146/209/125
f 130/161/67 129/168/67 155/196/67 156/188/67
f 129/168/67 107/178/67 133/206/67 155/196/67
f 126/177/67 125/164/67 151/192/67 152/204/67
f 108/156/126 109/155/126 135/185/126 134/184/126
f 109/155/126 112/159/126 138/187/126 135/185/126
f 110/163/126 120/181/126 146/209/126 136/191/126
f 116/160/126 108/156/126 134/184/126 142/189/126
f 112/159/126 110/163/126 136/191/126 138/187/126
f 113/171/126 118/179/126 144/207/126 139/201/126
f 114/166/126 111/165/126 137/195/126 140/194/126
f 115/172/126 113/171/126 139/201/126 141/200/126
f 117/176/126 115/172/126 141/200/126 143/205/126
f 120/174/126 114/166/126 140/194/126 146/203/126
f 106/154/67 131/157/67 157/183/67 132/182/67
f 121/158/67 106/154/67 132/182/67 147/186/67
f 123/180/67 122/162/67 148/190/67 149/208/67
f 111/165/126 117/176/126 143/205/126 137/195/126
f 131/157/67 130/161/67 156/188/67 157/183/67
f 122/162/67 121/158/67 147/186/67 148/190/67
f 107/178/67 128/170/67 154/198/67 133/206/67
f 125/164/67 124/167/67 150/193/67 151/192/67
f 128/170/67 127/173/67 153/199/67 154/198/67
f 119/169/126 116/160/126 142/189/126 145/197/126
f 127/173/67 126/177/67 152/204/67 153/199/67
f 118/179/126 119/169/126 145/197/126 144/207/126
f 124/167/67 123/175/67 149/202/67 150/193/67
o Water_Bottle.001_Sphere.000
v 0.338314 2.088574 0.019731
v 0.333223 2.037447 0.072995
v 0.306684 2.012250 0.137323
v 0.217107 2.055474 0.241059
v 0.174588 2.113993 0.256703
v 0.146964 2.180908 0.241324
v 0.140563 2.240887 0.198446
v 0.156851 2.280192 0.137891
v 0.192096 2.289817 0.073532
v 0.238226 2.267558 0.020110
v 0.284671 2.218514 -0.010132
v 0.313373 2.357472 0.150065
v 0.427960 2.079905 0.213857
v 0.386055 2.086411 0.274508
v 0.268240 2.248564 0.317858
v 0.454499 2.105102 0.149529
v 0.295865 2.181648 0.333237
v 0.278128 2.347847 0.214424
v 0.338383 2.123130 0.317592
v 0.405947 2.286170 0.066401
v 0.261839 2.308543 0.274980
v 0.359503 2.335213 0.096644
v 0.442068 2.221576 0.066264
v 0.459590 2.156229 0.096265
v 0.264779 2.018756 0.197975
v 0.320792 2.153921 -0.010269
vt 0.510265 0.166621
vt 0.590072 0.215755
vt 0.570282 0.249943
vt 0.485631 0.206572
vt 0.469207 0.521643
vt 0.546217 0.492898
vt 0.558874 0.522704
vt 0.488127 0.559149
vt 0.441425 0.391132
vt 0.443440 0.344148
vt 0.533921 0.356635
vt 0.530627 0.392369
vt 0.454731 0.480669
vt 0.537040 0.460982
vt 0.510733 0.592497
vt 0.574531 0.550172
vt 0.592615 0.575280
vt 0.536089 0.620905
vt 0.445308 0.436917
vt 0.531739 0.427322
vt 0.451556 0.296927
vt 0.541713 0.320659
vt 0.537754 0.133103
vt 0.612390 0.180920
vt 0.553935 0.284959
vt 0.465746 0.250603
vt 0.612390 0.598357
vt 0.562793 0.643170
vt 0.717284 0.992894
vt 0.680625 0.997346
vt 0.646096 0.984251
vt 0.621608 0.956609
vt 0.612771 0.920754
vt 0.621608 0.884899
vt 0.646096 0.857258
vt 0.680625 0.844163
vt 0.717284 0.848614
vt 0.747675 0.869592
vt 0.764837 0.902290
vt 0.764836 0.939218
vt 0.747675 0.971917
vn 0.1455 0.6155 -0.7746
vn -0.5251 -0.0212 0.8508
vn 0.5352 -0.8379 -0.1074
vn -0.2915 -0.4390 0.8499
vn -0.6055 0.7320 0.3123
vn 0.0089 -0.7562 0.6543
vn 0.6405 -0.5837 -0.4990
vn -0.1628 0.8529 -0.4960
vn -0.6384 0.4014 0.6568
vn 0.4205 0.2370 -0.8758
vn 0.3072 -0.9001 0.3088
vn 0.5991 -0.1958 -0.7763
vn -0.4338 0.8950 -0.1037
vn 0.7648 0.4267 0.4827
usemtl WaterBottle
s 1
f 167/210/127 179/211/127 177/212/127 168/213/127
f 162/214/128 174/215/128 172/216/128 163/217/128
f 160/218/129 159/219/129 173/220/129 170/221/129
f 161/222/130 176/223/130 174/215/130 162/214/130
f 164/224/131 178/225/131 175/226/131 165/227/131
f 182/228/132 171/229/132 176/223/132 161/222/132
f 158/230/133 181/231/133 173/220/133 159/219/133
f 166/232/134 169/233/134 179/211/134 167/210/134
f 164/224/135 163/217/135 172/216/135 178/225/135
f 168/213/136 177/212/136 180/234/136 183/235/136
f 182/228/137 160/218/137 170/221/137 171/229/137
f 183/235/138 180/234/138 181/231/138 158/230/138
f 165/227/139 175/226/139 169/236/139 166/237/139
f 173/238/140 181/239/140 180/240/140 177/241/140 179/242/140 169/243/140 175/244/140 178/245/140 172/246/140 174/247/140 176/248/140 171/249/140 170/250/140
